<svg id="Capa_1" data-name="Capa 1" xmlns="http://www.w3.org/2000/svg" viewBox="0 0 218.32 209.46"><defs><style>.cls-1{fill:#070308;}.cls-2{fill:none;}</style></defs><title>404</title><polygon class="cls-1" points="178.5 73.77 150.52 139.31 67.81 139.31 39.83 73.77 35.67 75.54 64.82 143.83 153.5 143.83 182.65 75.54 178.5 73.77"/><line class="cls-2" x1="145.3" y1="68.54" x2="73.88" y2="113.84"/><rect class="cls-1" x="67.3" y="87.84" width="84.57" height="6.69" transform="translate(-31.79 72.81) rotate(-32.36)"/><line class="cls-2" x1="73.03" y1="68.46" x2="145.3" y2="114.31"/><rect class="cls-1" x="105.82" y="48.59" width="6.69" height="85.59" transform="translate(-26.48 134.61) rotate(-57.61)"/><line class="cls-2" x1="98.41" y1="68.46" x2="88.34" y2="104.67"/><rect class="cls-1" x="74.58" y="83.22" width="37.58" height="6.69" transform="translate(-15.04 153.34) rotate(-74.46)"/><line class="cls-2" x1="120.72" y1="68.46" x2="130.8" y2="104.67"/><rect class="cls-1" x="122.41" y="67.77" width="6.69" height="37.58" transform="translate(-18.6 36.88) rotate(-15.55)"/></svg>