<svg id="Capa_1" data-name="Capa 1" xmlns="http://www.w3.org/2000/svg" viewBox="0 0 218.32 209.46"><defs><style>.cls-1{fill:#070308;}</style></defs><title>AMMENITIES</title><polygon class="cls-1" points="178.5 95.11 150.52 160.65 67.81 160.65 39.83 95.11 35.67 96.88 64.82 165.16 153.5 165.16 182.65 96.88 178.5 95.11"/><path class="cls-1" d="M91.21,96.16l20.35,21.94c3.51,5.22,10.64,1.86,7-3.38L103.15,98.41a5.19,5.19,0,0,0,1.35-.07l19.25,20.34c4.06,4.87,10.15-.9,6.77-5l-17.6-19.32a6.21,6.21,0,0,0,.74-.64l19.25,20.93c4.08,4.19,10.37-2,6.32-6.16L118.54,86.06c.14-.43.25-.86.35-1.3l20.89,21.11c4.4,3.7,10.23-2.93,5.65-6.77l-24-23.76c-2.16-2.06-.65-.61-3.71-3.6l8.09,2.11c6.44,1.26,8.86-4.29,8.16-7.36L103.28,54a9.87,9.87,0,0,0-5.33.22L88.88,44.3,71.22,62.18l9.49,10.34C79.56,79.68,82.86,87.7,91.21,96.16Z"/></svg>