<svg id="Capa_1" data-name="Capa 1" xmlns="http://www.w3.org/2000/svg" viewBox="0 0 218.32 455.46"><defs><style>.cls-1{fill:#070308;}</style></defs><title>BROOM</title><path class="cls-1" d="M159.58,390.81a1.75,1.75,0,0,0-1.75,1.74v40.31h-5.73l1.52-40.24a1.74,1.74,0,0,0-1.74-1.81h-3.72a1.75,1.75,0,0,0-1.75,1.74l0,40.31h-5.74l1.56-40.23a1.73,1.73,0,0,0-1.74-1.81h-3.71a1.73,1.73,0,0,0-1.75,1.73l-.08,40.31H129.2l1.6-40.24a1.74,1.74,0,0,0-1.74-1.81h-4.65a1.74,1.74,0,0,0-1.73,1.79l.79,40.26h-5.72l.72-40.27a1.74,1.74,0,0,0-1.75-1.77H113a1.74,1.74,0,0,0-1.74,1.77l.75,40.27H106.3l.76-40.27a1.74,1.74,0,0,0-1.74-1.78H101.6a1.75,1.75,0,0,0-1.75,1.78l.72,40.27H94.84l.8-40.26a1.74,1.74,0,0,0-1.75-1.78H89.27a1.74,1.74,0,0,0-1.75,1.81l1.6,40.23H83.38l-.07-40.31a1.74,1.74,0,0,0-1.74-1.74H77.86a1.74,1.74,0,0,0-1.75,1.81l1.56,40.24H71.94l0-40.31a1.73,1.73,0,0,0-1.74-1.73H66.44a1.75,1.75,0,0,0-1.75,1.8l1.52,40.24H60.48v-40.3a1.74,1.74,0,0,0-1.74-1.74,1.74,1.74,0,0,1-1.46-2.69l43.91-68.56a24,24,0,0,0,3.7-10.94V30.08a4.28,4.28,0,1,1,8.55,0V306.74h.08a23.94,23.94,0,0,0,3.78,13.1l43.75,68.28A1.75,1.75,0,0,1,159.58,390.81Z"/></svg>