<svg id="Capa_1" data-name="Capa 1" xmlns="http://www.w3.org/2000/svg" viewBox="0 0 218.32 209.46"><defs><style>.cls-1{fill:#070308;}</style></defs><title>NEGATIVE OPS</title><path class="cls-1" d="M111.84,29.07c-.89,0-1.78-.06-2.68-.06-.61,0-1.21,0-1.82,0a75.46,75.46,0,1,0,4.5,0Zm6.8,25.81L112.79,62,98.61,47.43ZM113,66.35l19.19,19.73L94.47,88.92ZM55.52,91.85,93.31,46.1,111,64.25l-20.49,25Zm32.54.3L80,102,58.82,94.35ZM62.55,98.64l17.34,6.27a.9.9,0,0,0,.32.09l.12,0h.34l6.43-.45.71,32.28-24.37,1.66Zm5.8,42.28,19.52-1.33.2,8.81Zm21.76-36.57,36.22-2.55.33,32.4-35.83,2.44Zm1,44.65-.21-9.61,37.05-2.53L149.68,145Zm38.58-14.45-.33-32.8,24.29-1.19,1,43.32ZM88.58,101.72H88.4l-4.71.33,8.37-10.21,43-3.23,22.23,8.25Zm47.63-15.64-21.37-22,6.28-7.65,37.16,37.84Z"/></svg>