<svg id="Capa_1" data-name="Capa 1" xmlns="http://www.w3.org/2000/svg" viewBox="0 0 218.32 209.46"><defs><style>.cls-1{fill:#070308;}</style></defs><title>OPS</title><path class="cls-1" d="M111.84,29.08c-.89,0-1.78-.07-2.67-.07-.62,0-1.22,0-1.83,0a75.8,75.8,0,1,0,4.5,0Zm-2.67,147.77a72.1,72.1,0,0,1-1.85-144.17l.73,0c.37,0,.73,0,1.12,0,.84,0,1.69,0,2.55.07h.09a72.1,72.1,0,0,1-2.64,144.16Z"/><polygon class="cls-1" points="118.12 57.72 112.64 64.4 99.34 50.73 118.12 57.72"/><polygon class="cls-1" points="155.31 94.68 134.61 86.98 114.56 66.36 120.45 59.19 155.31 94.68"/><polygon class="cls-1" points="130.84 86.99 95.45 89.65 112.83 68.47 130.84 86.99"/><polygon class="cls-1" points="151.83 141.21 128.47 132.45 128.16 101.68 150.95 100.56 151.83 141.21"/><polygon class="cls-1" points="89.44 145.44 70.95 138.43 89.25 137.18 89.44 145.44"/><polygon class="cls-1" points="147.24 142.26 92.28 146 92.09 136.98 126.84 134.61 147.24 142.26"/><path class="cls-1" d="M89.2,134.6l-22.86,1.56-.84-37.4,16.27,5.89a1,1,0,0,0,.31.08l.11,0h.31l6-.43Z"/><polygon class="cls-1" points="125.64 132.12 92.03 134.41 91.36 104.13 125.33 101.73 125.64 132.12"/><path class="cls-1" d="M154.39,97.1l-64.47,4.56h-.17l-4.41.31,7.85-9.58,40.36-3Z"/><polygon class="cls-1" points="89.44 92.67 81.85 101.91 62 94.74 89.44 92.67"/><polygon class="cls-1" points="110.91 66.5 91.69 89.93 58.91 92.39 94.35 49.48 110.91 66.5"/></svg>