<svg id="Capa_1" data-name="Capa 1" xmlns="http://www.w3.org/2000/svg" viewBox="0 0 218.32 209.46"><defs><style>.cls-1{fill:#070308;}</style></defs><title>OUR SERVICE</title><path class="cls-1" d="M107,29.07h0Z"/><path class="cls-1" d="M111.84,29.07c-.89,0-1.78-.06-2.68-.06-.61,0-1.22,0-1.82,0l-.34,0h-.25a75.59,75.59,0,1,0,5.09,0Zm-2.68,147.77A72.09,72.09,0,0,1,106.75,32.7V67.16a13.33,13.33,0,0,1-2.07,6.16L80,111.92a1,1,0,0,0,.82,1.51,1,1,0,0,1,.7.29,1,1,0,0,1,.28.69V137.1H85l-.86-22.65a1,1,0,0,1,1-1h2.08a1,1,0,0,1,1,1l0,22.69h3.23l-.88-22.65a1,1,0,0,1,1-1h2.09a1,1,0,0,1,1,1l0,22.69h3.24L97,114.46a1,1,0,0,1,1-1h2.6a1,1,0,0,1,1,1l-.45,22.67h3.23l-.42-22.67a1,1,0,0,1,1-1H107a1,1,0,0,1,1,1l-.43,22.67h3.22l-.42-22.67a1,1,0,0,1,1-1h2.09a1,1,0,0,1,1,1L114,137.1h3.23l-.45-22.67a1,1,0,0,1,1-1h2.61a1,1,0,0,1,1,1l-.91,22.65h3.22l0-22.69a1,1,0,0,1,1-1h2.1a1,1,0,0,1,1,1l-.89,22.64h3.23l0-22.69a1,1,0,0,1,1-1h2.09a1,1,0,0,1,1,1l-.85,22.65h3.22V114.41a1,1,0,0,1,1-1,1,1,0,0,0,.83-1.52L113.74,73.48a13.51,13.51,0,0,1-2.13-7.39h0V32.67h.23a72.1,72.1,0,0,1-2.64,144.16Z"/></svg>