<svg id="Capa_1" data-name="Capa 1" xmlns="http://www.w3.org/2000/svg" viewBox="0 0 218.32 209.46"><defs><style>.cls-1{fill:#070308;}</style></defs><title>RATE</title><path class="cls-1" d="M111.84,29.08c-.89,0-1.78-.07-2.68-.07-.61,0-1.21,0-1.82,0a75.63,75.63,0,1,0,4.5,0Zm-2.68,147.77a72.1,72.1,0,0,1-1.85-144.17c.25,0,.49,0,.74,0s.73,0,1.11,0c.85,0,1.7,0,2.55.06h.1a72.1,72.1,0,0,1-2.65,144.16Z"/><polygon class="cls-1" points="163.63 101.94 163.63 106.6 107.29 106.6 107.29 47.93 111.96 47.93 111.96 101.94 163.63 101.94"/></svg>