<svg id="Capa_1" data-name="Capa 1" xmlns="http://www.w3.org/2000/svg" viewBox="0 0 218.32 209.46"><defs><style>.cls-1{fill:#070308;}</style></defs><title>SAFETY</title><path class="cls-1" d="M161.92,50.47c-1.49-1.44-3-2.83-4.63-4.14A75.4,75.4,0,0,0,121.4,30q-3-.51-6.18-.75c-1.12-.09-2.25-.15-3.39-.19-.88,0-1.77-.06-2.67-.06-.61,0-1.21,0-1.82,0a75.8,75.8,0,0,0-73.71,70.4c-.13,1.74-.19,3.5-.19,5.27,0,1.1,0,2.2.08,3.29a75.71,75.71,0,1,0,128.4-57.54Zm-50,126.32A72.2,72.2,0,0,1,37.12,108c0-1.09-.08-2.19-.08-3.29,0-1.77.07-3.52.2-5.27a72.19,72.19,0,0,1,70.07-66.78c.25,0,.49,0,.74,0s.73,0,1.11,0c.85,0,1.7,0,2.55.06h.1a74,74,0,0,1,8.07.76,70,70,0,0,1,8.47,1.79,71.71,71.71,0,0,1,20.45,9.3,73.66,73.66,0,0,1,6.93,5.2,72.07,72.07,0,0,1-43.81,127.07Z"/><path class="cls-1" d="M156.54,100.45H129.76a3.25,3.25,0,0,1-3.07-2.13c0-.13-.1-.27-.16-.41s-.22-.55-.34-.81c-.2-.45-.41-.87-.64-1.29-.11-.2-.22-.39-.34-.58s-.24-.41-.36-.59-.26-.4-.4-.59a19.11,19.11,0,0,0-3.1-3.44c-.16-.14-.33-.28-.49-.4a17.87,17.87,0,0,0-4.31-2.62l-.59-.25q-.28-.12-.57-.21L115,87l-.5-.16a17.83,17.83,0,0,0-2.92-.62,18.35,18.35,0,0,0-3.91-.09c-.14,0-.27,0-.4,0l-.56.07a6.83,6.83,0,0,0-.77.12h-.06c-.21,0-.43.07-.64.12a16.68,16.68,0,0,0-2,.54l-.53.19a18.31,18.31,0,0,0-4.08,2.1l-.49.35a.57.57,0,0,0-.13.1l-.54.41-.43.36a18.79,18.79,0,0,0-2.8,3c-.15.19-.28.38-.43.59s-.28.42-.42.63-.27.45-.4.67-.23.4-.34.61a3.45,3.45,0,0,0-.24.47q-.14.25-.24.51a13.47,13.47,0,0,0-.57,1.36,3.26,3.26,0,0,1-3.06,2.11H61.82a3.27,3.27,0,0,0-3.27,3.13c0,.32,0,.63,0,.94,0,.07,0,.13,0,.21s0,.09,0,.14c0,.29,0,.57,0,.85v0A3.28,3.28,0,0,0,61.79,109H88.52a3.26,3.26,0,0,1,3.09,2.2,21.52,21.52,0,0,0,1,2.48c.08.18.18.37.26.55.21.41.43.82.67,1.22.1.19.21.37.33.56a26,26,0,0,0,1.63,2.39c5.22,4,10.6,5.35,15.45,4.89.48,0,1-.11,1.43-.2.25,0,.5-.08.75-.14l.82-.2.57-.16a18.42,18.42,0,0,0,5.06-2.41c.21-.13.41-.29.63-.44s.32-.23.47-.36a18.69,18.69,0,0,0,4.48-5.1l.35-.61c.1-.19.21-.38.31-.58l.06-.13c.09-.18.18-.37.26-.56a6.39,6.39,0,0,0,.26-.6c.1-.24.2-.48.28-.72a3.26,3.26,0,0,1,3.06-2.08h26.76a3.28,3.28,0,0,0,3.28-3.18c0-.3,0-.6,0-.9,0-.06,0-.13,0-.2s0-.1,0-.15c0-.28,0-.56,0-.84v0A3.27,3.27,0,0,0,156.54,100.45Z"/></svg>