<svg id="Capa_1" data-name="Capa 1" xmlns="http://www.w3.org/2000/svg" viewBox="0 0 218.32 209.46"><defs><style>.cls-1{fill:#1c1c1a;}</style></defs><title>TRUST</title><path class="cls-1" d="M164.8,105.11c0-.07,0-.13-.05-.2a1.42,1.42,0,0,0-.08-.18l-.1-.17-.13-.15L122.9,62.11h0a1.46,1.46,0,0,0-.54-.34l-27-10-.06,0-.13,0a.35.35,0,0,0-.14,0,1.33,1.33,0,0,0-.28,0l-.21,0h-.09a1.09,1.09,0,0,0-.24.07l-.18.08-.05,0a.91.91,0,0,0-.16.11l0,0a1.75,1.75,0,0,0-.23.24L53.84,100.25l0,0c0,.06-.09.12-.13.19h0a1.25,1.25,0,0,0-.13.35s0,0,0,0a.15.15,0,0,0,0,.07,1.1,1.1,0,0,0,0,.18.41.41,0,0,0,0,.11v0s0,.06,0,.09,0,0,0,0a.75.75,0,0,0,.05.16,1.3,1.3,0,0,0,.08.17l.06.1a1.56,1.56,0,0,0,.16.2l.2.16a1.16,1.16,0,0,0,.35.18L62,105.06l.92,41.26v0a.41.41,0,0,0,0,.16.58.58,0,0,0,0,.19.87.87,0,0,0,.07.17,1.45,1.45,0,0,0,.35.44l.09.07a2.55,2.55,0,0,0,.33.17h0l26.85,10.2.14,0,.14,0,.12,0h.28l64.56-4.4.19,0h.06l.17,0,.15,0,.08,0a1.38,1.38,0,0,0,.62-.53.8.8,0,0,0,.08-.16.61.61,0,0,0,.05-.12.84.84,0,0,0,0-.12,1.5,1.5,0,0,0,0-.29l-1-45,6.93-.49h.24l.14,0,.07,0,.13,0,.06,0a.31.31,0,0,0,.1,0l.13-.07.14-.11a1.41,1.41,0,0,0,.34-.46,1.1,1.1,0,0,0,.11-.5A1.15,1.15,0,0,0,164.8,105.11ZM119.49,63.57,113.8,70.5,100,56.33ZM114,74.72l18.67,19.19L96,96.67ZM94.85,55,112,72.68h0L92.09,97l-34,2.56ZM61.32,102l28.43-2.14-7.86,9.58Zm3.62,4.17,16.86,6.1a1.28,1.28,0,0,0,.32.09h.12a.39.39,0,0,0,.15,0h.17l6.26-.43.69,31.38-23.7,1.62Zm5.65,41.11,19-1.29.18,8.56Zm21.16-35.55L127,109.2l.32,31.49-34.84,2.38Zm1,43.41-.2-9.35,36-2.46,21.15,7.92ZM130.21,141l-.32-31.9L153.51,108l.92,42.13ZM90.26,109.12h-.18l-4.58.32,8.14-9.93,41.83-3.15,21.61,8ZM136.57,93.9,115.79,72.54l6.1-7.44L158,101.89Z"/></svg>