<svg id="Capa_1" data-name="Capa 1" xmlns="http://www.w3.org/2000/svg" viewBox="0 0 218.32 209.46"><defs><style>.cls-1{fill:#070308;}</style></defs><title>WORK W US</title><path class="cls-1" d="M139.78,128.1,118.89,107c-.1.43-.21.87-.35,1.3l20.69,22.41c4.05,4.16-2.24,10.35-6.32,6.16l-19.25-20.93c-.14.12-.52.49-.74.64l17.6,19.31c3.38,4.12-2.71,9.9-6.77,5L104.5,120.57a5.25,5.25,0,0,1-1.36.07L118.61,137c3.58,5.24-3.54,8.6-7,3.38L91.21,118.39c-8.35-8.47-11.66-16.48-10.5-23.64L71.22,84.41,88.88,66.52l9.06,9.88a9.71,9.71,0,0,1,5.34-.22l30.66,12.54c.7,3.07-1.72,8.61-8.16,7.35L117.69,94c3.06,3,1.54,1.54,3.71,3.6l24,23.75C150,125.16,144.18,131.79,139.78,128.1Z"/><path class="cls-1" d="M111.83,29.08c-.88,0-1.77-.07-2.67-.07-.61,0-1.22,0-1.82,0A75.66,75.66,0,0,0,56.41,159q2.23,2.19,4.65,4.17a75.39,75.39,0,0,0,35.86,16.29q3,.51,6.18.75c2,.17,4,.24,6.06.24a75.71,75.71,0,0,0,2.67-151.37Zm-2.67,147.77a73.9,73.9,0,0,1-10.69-.78,72.11,72.11,0,0,1,8.84-143.4l.74,0c.36,0,.73,0,1.11,0,.84,0,1.7,0,2.55.06h.09a72.1,72.1,0,0,1-2.64,144.16Z"/></svg>