<?xml version="1.0" encoding="utf-8"?>
<!-- Generator: Adobe Illustrator 22.0.1, SVG Export Plug-In . SVG Version: 6.00 Build 0)  -->
<svg version="1.1" xmlns="http://www.w3.org/2000/svg" xmlns:xlink="http://www.w3.org/1999/xlink" x="0px" y="0px"
	 viewBox="0 0 110 110" style="enable-background:new 0 0 110 110;" xml:space="preserve">
<style type="text/css">
	.st0{fill:none;stroke:#000000;stroke-width:0.6886;stroke-miterlimit:10;}
	.st1{fill:none;stroke:#444242;stroke-width:0.7124;stroke-miterlimit:10;}
	.st2{fill:none;stroke:#000000;stroke-width:0.6885;stroke-miterlimit:10;}
	.st3{fill:#FFFFFF;}
	.st4{fill:none;}
</style>
<g id="Capa_1">
</g>
<g id="Capa_2">
	<path class="st3" d="M75,34.7c-10.8-6.6-24.6-7.4-36.1-2.1C35.8,34,33,35.9,30.5,38V3.2c0-0.2,0-0.5,0-0.7l0,0V2.4H17.7v15.2v51.9
		C18,73,18.9,78,21.5,83.2c3.3,6.6,7.9,10.8,10.3,12.7c8,6.1,16.7,7.5,21.3,7.7c0.8,0,1.7,0.1,2.5,0.1c10.3,0,17.6-3.7,22.1-6.9
		c7.5-5.4,12.5-13.7,14.2-23.4C94,60.5,89.6,43.6,75,34.7z M79.3,71.3c-1.1,6.5-4.4,12-9.3,15.5c-3.1,2.3-8.4,4.9-16.2,4.4
		c-3-0.2-8.9-1.1-14.1-5.1c-1.3-1-4.5-3.8-6.8-8.4c-2.5-4.9-2.6-9.6-2.7-12.2c0.1-9.4,5.7-18,14.2-21.9c7.6-3.5,16.7-3,23.8,1.4
		C77.9,51,80.8,62.5,79.3,71.3z"/>
</g>
</svg>
